PathFileType	4	(X/Y/Z)	C:\Users\Public\Documents\Vicon Data\AADs Machine\Fixing_spring_distance_56\90_lb_Spring\Brian_90_01.trc
DataRate	CameraRate	NumFrames	NumMarkers	Units	OrigDataRate	OrigDataStartFrame	OrigNumFrames
100.0	100.0	19	8	mm	100.0	326	1302	
Frame#	Time	SpringTop			MMAL			LMAL			Shank			Heel			Foot			Toe			MP5			
		X1	Y1	Z1	X2	Y2	Z2	X3	Y3	Z3	X4	Y4	Z4	X5	Y5	Z5	X6	Y6	Z6	X7	Y7	Z7	X8	Y8	Z8	
326	3.25	-349.17044	154.97092	-610.51154	-288.57227	103.42417	-672.58966	-271.29388	110.45411	-550.21613	-191.50754	264.01608	-620.20251	-356.05844	86.97493	-607.1936	-178.21362	56.790142	-613.63678	-104.88237	37.794075	-629.96246	-164.58936	39.003784	-561.78699
327	3.26	-349.15714	154.9576	-610.49396	-288.60385	103.39548	-672.56793	-271.29398	110.42856	-550.18481	-191.39967	263.9425	-620.11517	-356.0679	86.933403	-607.16351	-178.20041	56.77869	-613.62903	-104.87332	37.764721	-629.97668	-164.55223	38.977329	-561.78412
328	3.27	-349.08722	154.94037	-610.50848	-288.60132	103.36153	-672.57141	-271.2886	110.40408	-550.1604	-191.30519	263.87741	-620.03625	-356.07779	86.891373	-607.20111	-178.19609	56.76873	-613.64783	-104.87257	37.756104	-629.96863	-164.5708	38.948711	-561.79016
329	3.28	-349.12149	155.04794	-610.45544	-288.58179	103.41466	-672.56635	-271.31494	110.41165	-550.12701	-191.20439	263.86014	-619.98505	-356.05154	86.954544	-607.19794	-178.22694	56.801903	-613.63977	-104.88992	37.769135	-629.96429	-164.57419	38.985973	-561.78986
330	3.29	-349.06659	155.0731	-610.42181	-288.58627	103.4567	-672.54382	-271.29361	110.41809	-550.09668	-191.07089	263.82214	-619.89258	-356.0354	86.967857	-607.12457	-178.19568	56.789562	-613.5993	-104.88326	37.748161	-629.94257	-164.59204	38.981483	-561.74756
331	3.3	-349.01288	155.10904	-610.41925	-288.58533	103.40651	-672.50336	-271.24088	110.40359	-550.073	-190.91277	263.74304	-619.86334	-356.03119	86.919968	-607.15289	-178.216	56.774178	-613.63043	-104.86745	37.751606	-629.94458	-164.57027	38.953053	-561.77356
332	3.31	-348.92197	155.16998	-610.37683	-288.59494	103.44669	-672.52472	-271.28656	110.41322	-550.04047	-190.79729	263.7124	-619.81842	-356.06143	86.953438	-607.11194	-178.22429	56.789478	-613.6153	-104.89819	37.772137	-629.93066	-164.57828	38.956779	-561.76154
333	3.32	-348.91968	155.26076	-610.39856	-288.55951	103.46374	-672.51807	-271.27951	110.41562	-549.99146	-190.76633	263.61188	-619.7793	-356.04517	86.986	-607.13855	-178.25058	56.804165	-613.59882	-104.87913	37.769943	-629.91864	-164.5863	38.942947	-561.74823
334	3.33	-348.78714	155.29955	-610.4184	-288.56497	103.47172	-672.52142	-271.24265	110.38515	-550.0235	-190.22983	263.47021	-620.01172	-356.02063	86.98452	-607.12225	-178.23285	56.80378	-613.60535	-104.86485	37.760822	-629.9281	-164.56458	38.930397	-561.73877
335	3.34	-348.73718	155.35593	-610.37244	-288.54782	103.48927	-672.50873	-271.2767	110.41344	-549.99982	-190.08473	263.39651	-619.99823	-356.02994	86.985466	-607.07843	-178.26208	56.81852	-613.59814	-104.86287	37.759872	-629.91669	-164.56287	38.938095	-561.75635
336	3.35	-348.69931	155.48128	-610.48193	-288.5607	103.4603	-672.49084	-271.25806	110.40585	-550.00598	-189.83955	263.33978	-619.97968	-356.02493	87.056519	-607.10394	-178.25983	56.847569	-613.58655	-104.86209	37.759609	-629.93292	-164.56871	38.93557	-561.74261
337	3.36	-348.58511	155.50009	-610.43481	-288.57257	103.45753	-672.52161	-271.22546	110.37417	-549.98895	-189.53854	263.21881	-620.00751	-356.01254	87.038315	-607.12708	-178.19806	56.813976	-613.57568	-104.8548	37.723312	-629.92999	-164.56837	38.905769	-561.74689
338	3.37	-348.57999	155.62563	-610.48285	-288.5369	103.5555	-672.57227	-271.2265	110.41428	-549.98792	-189.33397	263.16403	-620.03082	-355.97906	87.05146	-607.05994	-178.22173	56.82082	-613.59277	-104.84901	37.72184	-629.91711	-164.55301	38.932259	-561.75232
339	3.38	-348.5174	155.74673	-610.50659	-288.51773	103.56641	-672.56366	-271.21335	110.45438	-549.99414	-189.18239	263.09122	-620.01703	-355.9931	87.143829	-607.07965	-178.23518	56.860569	-613.57941	-104.86916	37.744293	-629.89996	-164.5567	38.963863	-561.74371
340	3.39	-348.42145	155.74487	-610.58752	-288.51282	103.53835	-672.57318	-271.18845	110.44382	-550.01331	-188.89275	262.98276	-620.06677	-355.97803	87.116104	-607.15881	-178.18318	56.837029	-613.61078	-104.81686	37.714539	-629.92651	-164.56175	38.898853	-561.74939
341	3.4	-348.38565	155.82498	-610.51074	-288.50552	103.56878	-672.58881	-271.16818	110.46351	-549.9881	-188.7355	262.90479	-620.0705	-355.93719	87.131256	-607.13422	-178.17619	56.817593	-613.58368	-104.82117	37.682728	-629.92725	-164.53571	38.914356	-561.74524
342	3.41	-348.32983	155.95221	-610.47992	-288.49338	103.5824	-672.58167	-271.17249	110.4668	-550.00616	-188.87259	262.87701	-619.78229	-355.9501	87.192299	-607.08887	-178.20772	56.862682	-613.59113	-104.8477	37.721249	-629.90558	-164.56416	38.947727	-561.72675
343	3.42	-348.26617	156.05118	-610.48621	-288.46936	103.56518	-672.57385	-271.16776	110.47985	-550.01044	-188.71515	262.74908	-619.75397	-355.9343	87.206863	-607.11914	-178.20132	56.864296	-613.57672	-104.8251	37.715843	-629.90759	-164.54965	38.945614	-561.72473
344	3.43	-348.15207	156.05128	-610.5	-288.46207	103.5355	-672.61127	-271.12234	110.46185	-550.01581	-188.45808	262.61389	-619.78644	-355.884	87.15387	-607.15607	-178.15358	56.841629	-613.59021	-104.79723	37.655865	-629.91675	-164.52039	38.887268	-561.76813
